<svg xmlns="http://www.w3.org/2000/svg" xmlns:xlink="http://www.w3.org/1999/xlink" width="500" zoomAndPan="magnify" viewBox="0 0 375 374.999991" height="500" preserveAspectRatio="xMidYMid meet" version="1.0"><defs><g/><clipPath id="c10bc75a38"><path d="M 42.933594 0 L 332.433594 0 L 332.433594 291.75 L 42.933594 291.75 Z M 42.933594 0 " clip-rule="nonzero"/></clipPath></defs><path fill="#ffffff" d="M 322.558594 184.746094 C 317.988281 183.117188 312.695312 184.851562 308.46875 188.808594 C 306.3125 190.828125 303.082031 191.195312 300.453125 189.839844 C 294.484375 186.773438 287.335938 183.082031 280.179688 179.339844 C 277.4375 177.910156 275.96875 174.84375 276.570312 171.816406 C 276.707031 171.136719 276.832031 170.464844 276.949219 169.785156 C 277.496094 166.65625 280.082031 164.285156 283.25 164.023438 L 293.15625 163.195312 C 295.839844 162.976562 298.390625 164.335938 299.769531 166.644531 C 301.101562 168.859375 303.207031 170.269531 305.535156 170.179688 C 309.339844 170.042969 312.28125 165.96875 312.105469 161.085938 C 311.925781 156.199219 308.691406 152.355469 304.882812 152.492188 C 302.738281 152.574219 300.871094 153.902344 299.679688 155.917969 C 298.292969 158.257812 295.664062 159.582031 292.949219 159.300781 C 290.316406 159.019531 287.382812 158.714844 284.414062 158.390625 C 280.933594 158.015625 278.308594 155.128906 278.179688 151.640625 C 277.875 143.558594 276.449219 135.597656 273.980469 127.996094 C 272.914062 124.699219 274.507812 121.128906 277.644531 119.632812 L 297.785156 110.03125 C 300.6875 108.644531 304.179688 109.414062 306.207031 111.914062 C 310.769531 117.550781 317.277344 120.011719 322.601562 117.492188 C 329.476562 114.234375 331.738281 103.898438 327.667969 94.414062 C 323.589844 84.921875 314.710938 79.871094 307.835938 83.128906 C 303.449219 85.210938 300.941406 90.167969 300.757812 95.949219 C 300.664062 98.894531 298.644531 101.4375 295.824219 102.335938 C 288.828125 104.566406 280.304688 107.269531 271.890625 109.882812 C 268.902344 110.808594 265.671875 109.640625 263.964844 107.027344 C 263.949219 106.996094 263.929688 106.964844 263.90625 106.9375 C 262.222656 104.359375 262.429688 100.980469 264.421875 98.628906 L 278.421875 82.125 C 280.21875 80.007812 283.097656 79.273438 285.765625 80.066406 C 288.882812 80.996094 292.027344 80.464844 293.996094 78.351562 C 297.0625 75.0625 296.105469 69.214844 291.871094 65.289062 C 287.636719 61.363281 281.722656 60.84375 278.664062 64.128906 C 276.839844 66.085938 276.441406 68.957031 277.3125 71.789062 C 278.148438 74.496094 277.242188 77.441406 275.03125 79.226562 C 270.492188 82.90625 264.824219 87.464844 259.75 91.484375 C 257.054688 93.621094 253.179688 93.5 250.671875 91.148438 C 246.777344 87.488281 242.515625 84.152344 237.90625 81.207031 C 235.160156 79.457031 233.964844 76.0625 235.046875 73 L 244.144531 47.308594 C 245.21875 44.28125 248.230469 42.359375 251.4375 42.699219 C 258.65625 43.464844 265.007812 40.601562 266.980469 35.066406 C 269.535156 27.910156 263.816406 19.007812 254.210938 15.175781 C 244.601562 11.335938 234.746094 14.027344 232.191406 21.183594 C 230.566406 25.746094 232.304688 31.023438 236.269531 35.242188 C 238.296875 37.394531 238.65625 40.617188 237.304688 43.246094 C 233.605469 50.40625 229.003906 59.269531 224.503906 67.785156 C 222.933594 70.765625 219.460938 72.179688 216.234375 71.183594 C 213.582031 70.367188 210.914062 69.6875 208.246094 69.132812 C 205.21875 68.507812 202.964844 65.96875 202.710938 62.894531 L 201.121094 43.917969 C 200.898438 41.15625 202.414062 38.609375 204.855469 37.289062 C 207.722656 35.746094 209.566406 33.144531 209.460938 30.265625 C 209.296875 25.78125 204.476562 22.316406 198.703125 22.53125 C 192.925781 22.742188 188.371094 26.546875 188.539062 31.027344 C 188.640625 33.699219 190.386719 36.011719 193.015625 37.394531 C 195.519531 38.722656 196.96875 41.441406 196.675781 44.261719 C 196.144531 49.3125 195.492188 55.433594 194.84375 61.167969 C 194.460938 64.589844 191.621094 67.253906 188.164062 67.347656 C 184.039062 67.460938 179.945312 67.863281 175.910156 68.546875 C 172.820312 69.066406 169.757812 67.507812 168.40625 64.691406 L 157.464844 41.855469 C 156.117188 39.046875 156.839844 35.722656 159.140625 33.628906 C 162.917969 30.195312 164.46875 25.570312 162.65625 21.753906 C 160.148438 16.5 152.21875 14.765625 144.929688 17.882812 C 137.644531 21 133.761719 27.78125 136.261719 33.039062 C 137.769531 36.207031 141.253906 38.09375 145.386719 38.414062 C 148.152344 38.625 150.488281 40.578125 151.335938 43.222656 C 153.527344 50.085938 156.25 58.660156 158.660156 66.5 C 159.699219 69.894531 158.003906 73.492188 154.761719 74.933594 C 147.976562 77.949219 141.574219 81.824219 135.722656 86.484375 C 133.105469 88.5625 129.386719 88.535156 126.832031 86.375 L 118.261719 79.136719 C 116.140625 77.347656 115.40625 74.472656 116.199219 71.816406 C 117.132812 68.703125 116.59375 65.5625 114.476562 63.597656 C 111.1875 60.546875 105.324219 61.492188 101.382812 65.722656 C 97.453125 69.949219 96.933594 75.84375 100.226562 78.902344 C 102.1875 80.722656 105.0625 81.121094 107.898438 80.246094 C 110.617188 79.410156 113.5625 80.316406 115.359375 82.519531 C 117.464844 85.109375 119.859375 88.066406 122.277344 91.070312 C 124.351562 93.644531 124.304688 97.292969 122.226562 99.859375 C 119.625 103.074219 117.230469 106.511719 115.074219 110.140625 C 113.363281 113.023438 109.875 114.328125 106.707031 113.210938 L 88.148438 106.664062 C 85.109375 105.59375 83.1875 102.589844 83.527344 99.398438 C 84.289062 92.1875 81.425781 85.855469 75.878906 83.886719 C 68.707031 81.339844 59.78125 87.042969 55.9375 96.628906 C 52.09375 106.210938 54.792969 116.050781 61.964844 118.59375 C 66.539062 120.21875 71.824219 118.484375 76.050781 114.523438 C 78.210938 112.507812 81.445312 112.140625 84.078125 113.496094 C 89.546875 116.308594 96.019531 119.652344 102.570312 123.070312 C 105.507812 124.601562 106.941406 127.984375 106.042969 131.167969 C 105.507812 133.0625 105.039062 134.953125 104.636719 136.859375 C 103.996094 139.867188 101.460938 142.109375 98.382812 142.363281 L 82.371094 143.695312 C 79.597656 143.925781 77.042969 142.410156 75.71875 139.96875 C 74.171875 137.113281 71.570312 135.273438 68.679688 135.378906 C 64.1875 135.546875 60.710938 140.347656 60.925781 146.113281 C 61.140625 151.878906 64.949219 156.417969 69.441406 156.253906 C 72.121094 156.152344 74.441406 154.410156 75.828125 151.789062 C 77.152344 149.28125 79.886719 147.839844 82.714844 148.136719 C 86.867188 148.566406 91.753906 149.085938 96.546875 149.613281 C 100.066406 150.003906 102.707031 152.949219 102.769531 156.480469 C 102.90625 163.765625 103.960938 170.949219 105.863281 177.890625 C 106.757812 181.160156 105.21875 184.601562 102.152344 186.0625 L 87.425781 193.082031 C 84.519531 194.472656 81.054688 193.683594 79.003906 191.203125 C 74.605469 185.855469 68.382812 183.542969 63.289062 185.957031 C 56.648438 189.101562 54.453125 199.085938 58.394531 208.253906 C 62.332031 217.421875 70.90625 222.300781 77.550781 219.152344 C 81.765625 217.15625 84.1875 212.402344 84.386719 206.847656 C 84.484375 203.949219 86.464844 201.460938 89.226562 200.574219 C 94.292969 198.960938 100.179688 197.089844 106.230469 195.199219 C 109.378906 194.210938 112.769531 195.566406 114.410156 198.421875 C 114.996094 199.445312 115.601562 200.457031 116.230469 201.457031 C 117.847656 204.023438 117.617188 207.339844 115.648438 209.65625 L 105.296875 221.867188 C 103.550781 223.921875 100.773438 224.8125 98.171875 224.097656 C 95.457031 223.351562 92.746094 223.847656 91.035156 225.683594 C 88.308594 228.617188 89.15625 233.820312 92.929688 237.320312 C 96.699219 240.816406 101.96875 241.277344 104.695312 238.355469 C 106.277344 236.652344 106.660156 234.1875 105.957031 231.726562 C 105.210938 229.105469 106.203125 226.296875 108.324219 224.582031 C 111.542969 221.980469 115.347656 218.917969 118.992188 216.007812 C 121.777344 213.785156 125.765625 214.074219 128.28125 216.59375 C 134.300781 222.636719 141.285156 227.875 149.128906 232.050781 C 152.1875 233.675781 153.628906 237.273438 152.472656 240.535156 L 147.15625 255.542969 C 146.085938 258.570312 143.074219 260.492188 139.867188 260.152344 C 132.648438 259.386719 126.300781 262.25 124.320312 267.785156 C 121.765625 274.941406 127.484375 283.847656 137.09375 287.675781 C 146.699219 291.515625 156.558594 288.820312 159.113281 281.667969 C 160.742188 277.105469 159 271.828125 155.035156 267.609375 C 153.007812 265.457031 152.644531 262.226562 153.996094 259.605469 C 156.472656 254.816406 159.355469 249.265625 162.335938 243.5625 C 163.816406 240.726562 167.042969 239.265625 170.160156 240.011719 C 172.851562 240.65625 175.558594 241.164062 178.261719 241.546875 C 181.503906 242.003906 184 244.617188 184.273438 247.867188 L 185.980469 268.3125 C 186.203125 271.074219 184.6875 273.628906 182.246094 274.945312 C 179.375 276.488281 177.53125 279.085938 177.640625 281.972656 C 177.804688 286.453125 182.625 289.917969 188.398438 289.707031 C 194.175781 289.492188 198.726562 285.683594 198.5625 281.203125 C 198.460938 278.53125 196.710938 276.222656 194.085938 274.839844 C 191.578125 273.507812 190.132812 270.789062 190.421875 267.96875 C 191.046875 262.050781 191.835938 254.65625 192.585938 248.140625 C 192.964844 244.859375 195.609375 242.324219 198.910156 241.996094 C 205.484375 241.363281 211.945312 239.988281 218.160156 237.921875 C 221.480469 236.816406 225.109375 238.394531 226.621094 241.546875 L 233.992188 256.945312 C 235.378906 259.847656 234.609375 263.332031 232.101562 265.355469 C 226.460938 269.902344 223.992188 276.394531 226.519531 281.707031 C 229.785156 288.566406 240.140625 290.828125 249.652344 286.761719 C 259.160156 282.699219 264.21875 273.839844 260.953125 266.976562 C 258.875 262.597656 253.902344 260.097656 248.109375 259.914062 C 245.152344 259.824219 242.609375 257.804688 241.710938 254.988281 C 239.90625 249.371094 237.804688 242.773438 235.683594 236.023438 C 234.746094 233.03125 235.929688 229.804688 238.554688 228.089844 C 241.945312 225.878906 245.1875 223.429688 248.257812 220.757812 C 250.84375 218.503906 254.703125 218.527344 257.316406 220.734375 L 265.578125 227.710938 C 267.699219 229.503906 268.433594 232.375 267.640625 235.03125 C 266.710938 238.148438 267.242188 241.289062 269.363281 243.25 C 272.652344 246.300781 278.515625 245.355469 282.453125 241.128906 C 286.386719 236.898438 286.910156 231 283.613281 227.945312 C 281.652344 226.125 278.777344 225.730469 275.945312 226.597656 C 273.222656 227.4375 270.269531 226.535156 268.480469 224.328125 C 266.289062 221.625 263.769531 218.519531 261.246094 215.386719 C 259.246094 212.902344 259.210938 209.402344 261.101562 206.835938 C 265.222656 201.261719 268.742188 195.097656 271.523438 188.410156 C 271.585938 188.261719 271.640625 188.113281 271.699219 187.96875 L 296.375 196.664062 C 299.414062 197.734375 301.335938 200.746094 300.996094 203.9375 C 300.230469 211.148438 303.09375 217.480469 308.640625 219.449219 C 315.8125 222 324.746094 216.292969 328.585938 206.707031 C 332.425781 197.121094 329.730469 187.289062 322.558594 184.746094 " fill-opacity="1" fill-rule="nonzero"/><g clip-path="url(#c10bc75a38)"><path stroke-linecap="round" transform="matrix(0.15173, 0, 0, -0.151381, -39.606559, 369.086256)" fill="none" stroke-linejoin="miter" d="M 2339.876669 1278.311338 C 2309.729484 1289.071647 2274.870997 1277.588824 2246.989357 1251.449272 C 2232.778216 1238.082749 2211.48725 1235.657163 2194.135241 1244.611186 C 2154.797155 1264.893207 2107.684134 1289.303884 2060.596858 1313.972602 C 2042.498249 1323.468511 2032.818197 1343.67312 2036.808644 1363.722904 C 2037.683968 1368.161209 2038.507802 1372.651122 2039.305892 1377.115231 C 2042.884422 1397.784314 2059.927493 1413.447402 2080.832287 1415.202081 L 2146.043917 1420.620942 C 2163.782098 1422.117579 2180.541976 1413.086145 2189.681387 1397.861727 C 2198.434626 1383.204999 2212.336829 1373.941327 2227.654997 1374.483213 C 2252.730452 1375.386357 2272.142046 1402.300032 2270.983529 1434.580959 C 2269.773523 1466.836082 2248.482556 1492.253119 2223.407102 1491.324171 C 2209.24745 1490.808089 2196.915681 1482.034696 2189.063511 1468.745585 C 2179.9241 1453.237322 2162.623581 1444.489733 2144.730931 1446.373432 C 2127.353177 1448.205523 2108.044562 1450.244047 2088.427009 1452.385787 C 2065.539863 1454.888784 2048.239344 1473.958013 2047.389765 1496.949465 C 2045.381669 1550.389753 2035.98481 1602.926897 2019.714083 1653.167477 C 2012.685747 1674.920332 2023.215379 1698.556887 2043.862725 1708.388248 L 2176.603018 1771.840526 C 2195.73142 1780.975177 2218.747289 1775.89177 2232.108851 1759.377147 C 2262.178801 1722.141833 2305.069671 1705.911055 2340.108372 1722.580502 C 2385.419256 1744.075316 2400.402741 1812.352961 2373.550893 1875.005312 C 2346.673301 1937.683467 2288.155325 1971.048167 2242.844441 1949.527549 C 2213.933008 1935.825572 2197.430578 1903.054367 2196.220571 1864.890105 C 2195.576951 1845.382207 2182.215389 1828.635347 2163.679118 1822.700404 C 2117.570145 1807.94046 2061.394947 1790.109828 2005.889115 1772.821082 C 1986.245817 1766.731315 1964.929106 1774.44674 1953.678619 1791.709682 C 1953.549895 1791.864507 1953.446916 1792.096744 1953.318192 1792.277372 C 1942.196429 1809.333881 1943.560905 1831.602818 1956.716508 1847.136886 L 2048.985944 1956.159202 C 2060.828561 1970.145023 2079.802494 1974.996194 2097.334716 1969.757962 C 2117.930573 1963.64239 2138.680898 1967.151748 2151.630543 1981.137569 C 2171.788737 2002.813012 2165.55849 2041.441747 2137.62536 2067.374866 C 2109.69223 2093.307985 2070.714572 2096.765735 2050.556378 2075.038684 C 2038.507802 2062.11083 2035.907575 2043.170622 2041.64867 2024.488455 C 2047.183807 2006.554606 2041.159519 1987.098316 2026.63944 1975.305843 C 1996.672469 1951.04999 1959.368225 1920.910803 1925.925703 1894.332582 C 1908.161777 1880.243544 1882.571426 1881.017667 1866.043251 1896.603343 C 1840.427155 1920.730175 1812.313811 1942.766875 1781.960668 1962.223165 C 1763.862059 1973.835009 1755.984144 1996.207163 1763.115459 2016.489184 L 1823.075146 2186.176936 C 1830.154971 2206.200916 1850.004228 2218.870729 1871.089236 2216.651576 C 1918.717153 2211.568169 1960.552486 2230.456769 1973.60511 2267.021177 C 1990.390733 2314.294285 1952.700316 2373.12763 1889.419548 2398.467254 C 1826.08729 2423.781075 1761.081619 2406.027855 1744.295996 2358.754747 C 1733.560406 2328.589756 1745.042595 2293.754223 1771.173588 2265.885796 C 1784.48366 2251.667738 1786.903673 2230.353553 1777.970221 2213.013198 C 1753.589876 2165.714286 1723.288222 2107.19059 1693.630189 2050.886048 C 1683.255027 2031.249129 1660.342137 2021.882241 1639.10266 2028.436482 C 1621.647672 2033.829538 1604.06396 2038.37106 1586.454502 2041.983634 C 1566.476522 2046.138093 1551.647505 2062.884953 1549.948347 2083.192779 L 1539.521695 2208.549089 C 1538.002751 2226.792587 1548.017486 2243.668467 1564.133743 2252.390253 C 1583.004697 2262.582872 1595.207741 2279.716793 1594.486886 2298.786022 C 1593.405604 2328.409127 1561.636496 2351.297362 1523.559906 2349.878137 C 1485.509062 2348.484716 1455.516346 2323.32572 1456.571884 2293.702614 C 1457.215505 2276.052611 1468.800674 2260.828193 1486.049703 2251.641934 C 1502.629368 2242.894345 1512.154951 2224.934692 1510.198345 2206.329937 C 1506.722794 2172.965238 1502.423409 2132.530215 1498.175514 2094.649799 C 1495.626776 2071.9938 1476.910292 2054.421209 1454.151871 2053.801911 C 1426.913851 2053.053592 1399.933279 2050.39577 1373.313135 2045.905857 C 1352.974727 2042.422303 1332.765043 2052.743943 1323.857335 2071.374502 L 1251.797583 2222.225262 C 1242.941365 2240.752604 1247.652667 2262.686088 1262.842111 2276.568693 C 1287.737352 2299.250496 1297.958046 2329.776744 1285.986705 2354.961544 C 1269.484275 2389.693861 1217.196545 2401.176685 1169.182455 2380.585014 C 1121.14262 2359.967539 1095.578014 2315.14582 1112.080444 2280.439308 C 1121.992199 2259.48638 1144.956579 2247.023 1172.143109 2244.958672 C 1190.421932 2243.565251 1205.791589 2230.637398 1211.378215 2213.168023 C 1225.846804 2167.804418 1243.790944 2111.164422 1259.649754 2059.375596 C 1266.523621 2037.003443 1255.350369 2013.237868 1233.956423 2003.664547 C 1189.263415 1983.743783 1147.04191 1958.171922 1108.527658 1927.387632 C 1091.252884 1913.634048 1066.76956 1913.866284 1049.880958 1928.135951 L 993.396822 1975.899337 C 979.417385 1987.743418 974.603103 2006.709431 979.803557 2024.307826 C 985.982314 2044.847888 982.429529 2065.594384 968.475836 2078.548041 C 946.747208 2098.701042 908.129977 2092.45645 882.179198 2064.536416 C 856.254164 2036.642185 852.804358 1997.652192 874.532987 1977.473387 C 887.456886 1965.474481 906.456564 1962.816659 925.121559 1968.596777 C 943.014209 1974.09305 962.451548 1968.132304 974.268421 1953.552988 C 988.170623 1936.444871 1003.952198 1916.911168 1019.888242 1897.067816 C 1033.558742 1880.114524 1033.249804 1856.013496 1019.579304 1839.034399 C 1002.433254 1817.771822 986.600189 1795.115823 972.389049 1771.092207 C 961.138562 1752.074587 938.122693 1743.481822 917.269388 1750.861794 L 794.930002 1794.057855 C 774.926277 1801.128178 762.234081 1820.97153 764.499625 1842.105087 C 769.519865 1889.687844 750.623167 1931.516288 714.065522 1944.573162 C 666.798032 1961.397434 607.971117 1923.72345 582.663959 1860.400192 C 557.305311 1797.076935 575.120727 1732.102215 622.336727 1715.277942 C 652.509656 1704.543437 687.342398 1716.026261 715.224039 1742.140009 C 729.460924 1755.506532 750.777635 1757.880509 768.078155 1748.952291 C 804.172393 1730.347536 846.805815 1708.310836 889.954134 1685.706445 C 909.339984 1675.591239 918.839822 1653.24489 912.841279 1632.188745 C 909.339984 1619.725366 906.250605 1607.184574 903.598889 1594.643782 C 899.402483 1574.723018 882.694095 1559.911465 862.432921 1558.234199 L 756.827668 1549.460805 C 738.600335 1547.938364 721.711733 1557.92455 713.035729 1574.052111 C 702.815035 1592.940711 685.668985 1605.120246 666.643563 1604.423535 C 637.037019 1603.313959 614.149874 1571.574918 615.51435 1533.488068 C 616.90457 1495.401219 642.083004 1465.416857 671.689548 1466.526433 C 689.324749 1467.145731 704.617173 1478.705967 713.705094 1495.968909 C 722.509823 1512.53514 740.479707 1522.082657 759.093212 1520.121545 C 786.511446 1517.25729 818.718216 1513.825345 850.307111 1510.341792 C 873.477449 1507.761382 890.855203 1488.330896 891.31861 1465.003991 C 892.219678 1416.905151 899.17078 1369.42561 911.682762 1323.597531 C 917.629816 1301.999501 907.460612 1279.214482 887.225183 1269.563749 L 790.192955 1223.193784 C 771.064554 1214.033329 748.151664 1219.245757 734.687123 1235.657163 C 705.698455 1270.931366 664.686956 1286.207392 631.089966 1270.286264 C 587.298027 1249.48816 572.855182 1183.558689 598.831706 1122.996469 C 624.75674 1062.43425 681.31811 1030.204931 725.084305 1050.97723 C 752.888711 1064.188929 768.824755 1095.618321 770.163485 1132.311749 C 770.83285 1151.406782 783.85973 1167.895601 802.061318 1173.701523 C 835.426605 1184.38442 874.249794 1196.718779 914.12852 1209.259571 C 934.878845 1215.736399 957.199605 1206.808181 968.012429 1187.919581 C 971.874152 1181.184711 975.890344 1174.527254 980.03526 1167.921405 C 990.693616 1150.942308 989.148927 1129.034628 976.199282 1113.706994 L 907.975508 1033.09499 C 896.493318 1019.49623 878.163006 1013.587092 861.016956 1018.309242 C 843.124306 1023.289433 825.283145 1019.960704 813.981169 1007.858582 C 796.011285 988.505508 801.597911 954.108645 826.441662 931.013976 C 851.336904 907.893504 886.066666 904.848621 904.010806 924.17589 C 914.463203 935.400673 916.960451 951.683059 912.300638 967.939641 C 907.383377 985.228387 913.948307 1003.781534 927.927744 1015.109534 C 949.141476 1032.295063 974.191186 1052.55128 998.236848 1071.74953 C 1016.592905 1086.457866 1042.878367 1084.574167 1059.458031 1067.878915 C 1099.105054 1027.959975 1145.162538 993.356678 1196.832392 965.823705 C 1217.042076 955.037592 1226.490425 931.297822 1218.869958 909.725595 L 1183.857003 810.637857 C 1176.802922 790.588072 1156.902176 777.91826 1135.817168 780.163217 C 1088.214995 785.195016 1046.379662 766.33222 1033.352783 729.767812 C 1016.515671 682.494704 1054.206088 623.635555 1117.538345 598.321734 C 1180.870603 573.007914 1245.824785 590.786938 1262.661898 638.034242 C 1273.371743 668.173429 1261.915298 703.034766 1235.732815 730.903193 C 1222.422743 745.121251 1220.028475 766.435436 1228.936183 783.801595 C 1245.232654 815.437419 1264.206587 852.105043 1283.901374 889.753223 C 1293.632916 908.486998 1314.923883 918.137731 1335.468249 913.209149 C 1353.206431 908.951472 1371.021846 905.596939 1388.863007 903.042334 C 1410.205463 900.049058 1426.630658 882.786116 1428.432795 861.291302 L 1439.683282 726.258455 C 1441.202226 708.014957 1431.213236 691.164881 1415.071234 682.4689 C 1396.20028 672.276281 1384.07447 655.090751 1384.76958 636.047326 C 1385.825118 606.450025 1417.568481 583.56179 1455.670815 584.955211 C 1493.747405 586.374437 1523.714375 611.481825 1522.658838 641.10493 C 1521.989472 658.754933 1510.481538 673.979351 1493.155274 683.16561 C 1476.601354 691.9132 1467.075771 709.872852 1469.032377 728.503411 C 1473.125803 767.622425 1478.326257 816.443779 1483.269263 859.485015 C 1485.740765 881.212066 1503.195754 897.933122 1524.924382 900.074862 C 1568.278659 904.306735 1610.860592 913.363973 1651.846346 927.040145 C 1673.703698 934.291097 1697.569147 923.866241 1707.532392 903.042334 L 1756.164358 801.322577 C 1765.303769 782.175936 1760.232039 759.132876 1743.703865 745.817962 C 1706.476855 715.730383 1690.231873 672.843971 1706.863027 637.776201 C 1728.385697 592.464204 1796.635215 577.497827 1859.323853 604.385698 C 1921.986745 631.247764 1955.377777 689.77146 1933.855108 735.083457 C 1920.158863 763.984047 1887.385707 780.49867 1849.206138 781.711463 C 1829.717309 782.356565 1812.931687 795.697284 1806.984633 814.250431 C 1795.116271 851.356724 1781.239813 894.991455 1767.311865 939.529329 C 1761.081619 959.295268 1768.933789 980.661062 1786.260053 991.989061 C 1808.606557 1006.568377 1829.949013 1022.721743 1850.184442 1040.39755 C 1867.176023 1055.260711 1892.611905 1055.157494 1909.83519 1040.552375 L 1964.336975 994.440451 C 1978.290667 982.622173 1983.130694 963.630357 1977.87875 946.08357 C 1971.751483 925.517703 1975.304268 904.797012 1989.257961 891.843355 C 2010.986589 871.638746 2049.60382 877.934946 2075.554599 905.829176 C 2101.479633 933.749211 2104.877949 972.739204 2083.175065 992.892205 C 2070.225421 1004.916915 2051.328723 1007.548933 2032.612238 1001.794619 C 2014.719588 996.298346 1995.282249 1002.259092 1983.465376 1016.7868 C 1968.996787 1034.694844 1952.417123 1055.157494 1935.785969 1075.90399 C 1922.604621 1092.263788 1922.347173 1115.38426 1934.833411 1132.337553 C 1961.994196 1169.185806 1985.190279 1209.878869 2003.520591 1254.055486 C 2003.906764 1255.036041 2004.292936 1256.016597 2004.679108 1256.997153 L 2167.309138 1199.531426 C 2187.312863 1192.461103 2200.00506 1172.617751 2197.739516 1151.484194 C 2192.693531 1103.901436 2211.590229 1062.021385 2248.173619 1049.016119 C 2295.441109 1032.191847 2354.268023 1069.891635 2379.600926 1133.214892 C 2404.933829 1196.512346 2387.144159 1261.487066 2339.876669 1278.311338 Z M 2339.876669 1278.311338 " stroke="#26275d" stroke-width="27.493" stroke-opacity="1" stroke-miterlimit="10"/></g><path stroke-linecap="round" transform="matrix(0.15173, 0, 0, -0.151381, -39.606559, 369.086256)" fill="none" stroke-linejoin="miter" d="M 1519.054563 1908.860289 C 1518.900094 1889.53302 1489.139082 1874.127973 1452.658671 1874.540838 C 1416.126771 1874.9279 1386.726187 1890.900637 1386.9064 1910.202102 C 1387.112359 1929.529372 1416.873371 1944.882811 1453.353781 1944.495749 C 1489.834192 1944.134492 1519.286266 1928.161755 1519.054563 1908.860289 Z M 1519.054563 1908.860289 " stroke="#26275d" stroke-width="27.493" stroke-opacity="1" stroke-miterlimit="10"/><path stroke-linecap="round" transform="matrix(0.15173, 0, 0, -0.151381, -39.606559, 369.086256)" fill="none" stroke-linejoin="miter" d="M 1153.40088 1377.270056 C 1137.104409 1372.934967 1116.766001 1396.05544 1107.961272 1428.981469 C 1099.130799 1461.907499 1105.232321 1492.149903 1121.528793 1496.484991 C 1137.851009 1500.871688 1158.215162 1477.699607 1166.994145 1444.773578 C 1175.773129 1411.847548 1169.723096 1381.630949 1153.40088 1377.270056 Z M 1153.40088 1377.270056 " stroke="#26275d" stroke-width="27.493" stroke-opacity="1" stroke-miterlimit="10"/><path stroke-linecap="round" transform="matrix(0.15173, 0, 0, -0.151381, -39.606559, 369.086256)" fill="none" stroke-linejoin="miter" d="M 1843.97994 1265.976979 C 1855.204682 1253.823249 1845.653353 1226.806358 1822.688974 1205.621193 C 1799.776083 1184.461832 1772.023167 1177.159272 1760.849915 1189.287198 C 1749.650918 1201.440929 1759.150757 1228.483624 1782.115137 1249.642985 C 1805.079516 1270.82815 1832.780943 1278.13071 1843.97994 1265.976979 Z M 1843.97994 1265.976979 " stroke="#26275d" stroke-width="27.493" stroke-opacity="1" stroke-miterlimit="10"/><path stroke-linecap="round" transform="matrix(0.15173, 0, 0, -0.151381, -39.606559, 369.086256)" fill="none" stroke-linejoin="miter" d="M 1567.840997 1264.144888 C 1555.715187 1279.988605 1566.244819 1308.527938 1591.448998 1327.803599 C 1616.653177 1347.105065 1646.903341 1349.917712 1659.106385 1334.022387 C 1671.257941 1318.152866 1660.676819 1289.639338 1635.498385 1270.363676 C 1610.268461 1251.06221 1579.992553 1248.249564 1567.840997 1264.144888 Z M 1567.840997 1264.144888 " stroke="#26275d" stroke-width="27.493" stroke-opacity="1" stroke-miterlimit="10"/><path stroke-linecap="round" transform="matrix(0.15173, 0, 0, -0.151381, -39.606559, 369.086256)" fill="none" stroke-linejoin="miter" d="M 1073.360234 1279.420915 C 1084.070079 1287.652422 1105.824452 1277.227566 1121.94071 1256.145618 C 1138.134202 1235.089473 1142.536566 1211.375507 1131.800976 1203.118195 C 1121.091131 1194.912492 1099.336758 1205.363152 1083.16901 1226.393492 C 1067.027008 1247.501245 1062.624644 1271.215211 1073.360234 1279.420915 Z M 1073.360234 1279.420915 " stroke="#26275d" stroke-width="27.493" stroke-opacity="1" stroke-miterlimit="10"/><path stroke-linecap="round" transform="matrix(0.15173, 0, 0, -0.151381, -39.606559, 369.086256)" fill="none" stroke-linejoin="miter" d="M 1766.513776 1889.687844 C 1777.275111 1897.893547 1799.029484 1887.468692 1815.145741 1866.412547 C 1831.339233 1845.304795 1835.715853 1821.590828 1825.006007 1813.410929 C 1814.296162 1805.205226 1792.490299 1815.578473 1776.374042 1836.686226 C 1760.206295 1857.74237 1755.829675 1881.482141 1766.513776 1889.687844 Z M 1766.513776 1889.687844 " stroke="#26275d" stroke-width="27.493" stroke-opacity="1" stroke-miterlimit="10"/><path stroke-linecap="round" transform="matrix(0.15173, 0, 0, -0.151381, -39.606559, 369.086256)" fill="none" stroke-linejoin="miter" d="M 1618.197866 1059.182934 C 1617.785949 1018.128613 1570.595693 985.3058 1512.772827 985.899294 C 1454.94996 986.492788 1408.48056 1020.270353 1408.918222 1061.324674 C 1409.304394 1102.378995 1456.49465 1135.201808 1514.291771 1134.608314 C 1572.114638 1134.014819 1618.635528 1100.237254 1618.197866 1059.182934 Z M 1618.197866 1059.182934 " stroke="#26275d" stroke-width="27.493" stroke-opacity="1" stroke-miterlimit="10"/><path stroke-linecap="round" transform="matrix(0.15173, 0, 0, -0.151381, -39.606559, 369.086256)" fill="none" stroke-linejoin="miter" d="M 1941.243871 1556.402108 C 1940.70323 1505.000344 1913.722658 1463.584766 1880.898012 1463.946023 C 1848.124856 1464.255672 1821.942374 1506.213136 1822.45727 1557.6149 C 1822.997911 1609.016665 1850.029973 1650.432243 1882.803129 1650.070985 C 1915.627775 1649.735532 1941.784512 1607.803872 1941.243871 1556.402108 Z M 1941.243871 1556.402108 " stroke="#26275d" stroke-width="27.493" stroke-opacity="1" stroke-miterlimit="10"/><path stroke-linecap="round" transform="matrix(0.15173, 0, 0, -0.151381, -39.606559, 369.086256)" fill="none" stroke-linejoin="miter" d="M 1168.435855 1695.666827 C 1136.048871 1650.66448 1087.803078 1630.047005 1060.668037 1649.580708 C 1033.558742 1669.062802 1037.780892 1721.393514 1070.167876 1766.370057 C 1102.529115 1811.372405 1150.774908 1831.98988 1177.884204 1812.456177 C 1205.04499 1792.922475 1200.822839 1740.617567 1168.435855 1695.666827 Z M 1168.435855 1695.666827 " stroke="#26275d" stroke-width="27.493" stroke-opacity="1" stroke-miterlimit="10"/><path stroke-linecap="round" transform="matrix(0.15173, 0, 0, -0.151381, -39.606559, 369.086256)" fill="none" stroke-linejoin="miter" d="M 1310.470029 1527.217672 C 1329.109279 1572.194216 1384.228939 1592.063372 1433.504525 1571.600722 C 1482.805856 1551.138072 1507.649608 1498.084845 1488.984613 1453.134106 C 1470.345363 1408.157562 1415.225703 1388.31421 1365.950117 1408.77686 C 1316.648786 1429.213706 1291.805034 1482.266933 1310.470029 1527.217672 Z M 1310.470029 1527.217672 " stroke="#26275d" stroke-width="27.493" stroke-opacity="1" stroke-miterlimit="10"/><path stroke-linecap="round" transform="matrix(0.15173, 0, 0, -0.151381, -39.606559, 369.086256)" fill="none" stroke-linejoin="miter" d="M 1557.028173 1734.501996 C 1571.239314 1768.744034 1614.490612 1783.349154 1653.622739 1767.118376 C 1692.78061 1750.861794 1712.964549 1709.91069 1698.779153 1675.694455 C 1684.568013 1641.452417 1641.316715 1626.873101 1602.184588 1643.129683 C 1563.052461 1659.334657 1542.817032 1700.285761 1557.028173 1734.501996 Z M 1557.028173 1734.501996 " stroke="#26275d" stroke-width="27.493" stroke-opacity="1" stroke-miterlimit="10"/><g fill="#26265c" fill-opacity="1"><g transform="translate(29.847659, 352.105846)"><g><path d="M 26.59375 0.703125 C 21.65625 0.703125 17.410156 -0.242188 13.859375 -2.140625 C 10.316406 -4.046875 7.601562 -6.726562 5.71875 -10.1875 C 3.84375 -13.65625 2.90625 -17.710938 2.90625 -22.359375 C 2.90625 -27.003906 3.84375 -31.046875 5.71875 -34.484375 C 7.601562 -37.921875 10.316406 -40.585938 13.859375 -42.484375 C 17.410156 -44.390625 21.65625 -45.34375 26.59375 -45.34375 C 28.539062 -45.34375 30.554688 -45.117188 32.640625 -44.671875 C 34.734375 -44.234375 36.582031 -43.570312 38.1875 -42.6875 C 39.363281 -42.050781 40.1875 -41.242188 40.65625 -40.265625 C 41.125 -39.296875 41.289062 -38.304688 41.15625 -37.296875 C 41.03125 -36.285156 40.660156 -35.378906 40.046875 -34.578125 C 39.441406 -33.773438 38.671875 -33.234375 37.734375 -32.953125 C 36.804688 -32.679688 35.796875 -32.820312 34.703125 -33.375 C 32.210938 -34.59375 29.660156 -35.203125 27.046875 -35.203125 C 23.117188 -35.203125 20.160156 -34.09375 18.171875 -31.875 C 16.191406 -29.664062 15.203125 -26.492188 15.203125 -22.359375 C 15.203125 -18.171875 16.191406 -14.96875 18.171875 -12.75 C 20.160156 -10.539062 23.117188 -9.4375 27.046875 -9.4375 C 28.140625 -9.4375 29.316406 -9.570312 30.578125 -9.84375 C 31.847656 -10.125 33.097656 -10.554688 34.328125 -11.140625 C 35.585938 -11.691406 36.710938 -11.835938 37.703125 -11.578125 C 38.703125 -11.328125 39.515625 -10.820312 40.140625 -10.0625 C 40.773438 -9.300781 41.164062 -8.425781 41.3125 -7.4375 C 41.46875 -6.445312 41.332031 -5.46875 40.90625 -4.5 C 40.488281 -3.53125 39.707031 -2.75 38.5625 -2.15625 C 37.082031 -1.269531 35.253906 -0.570312 33.078125 -0.0625 C 30.910156 0.445312 28.75 0.703125 26.59375 0.703125 Z M 26.59375 0.703125 "/></g></g></g><g fill="#26265c" fill-opacity="1"><g transform="translate(73.40934, 352.105846)"><g><path d="M 25.578125 0.703125 C 21.066406 0.703125 17.109375 -0.253906 13.703125 -2.171875 C 10.304688 -4.097656 7.65625 -6.789062 5.75 -10.25 C 3.851562 -13.71875 2.90625 -17.753906 2.90625 -22.359375 C 2.90625 -27.003906 3.84375 -31.046875 5.71875 -34.484375 C 7.601562 -37.921875 10.253906 -40.585938 13.671875 -42.484375 C 17.097656 -44.390625 21.066406 -45.34375 25.578125 -45.34375 C 30.097656 -45.34375 34.054688 -44.390625 37.453125 -42.484375 C 40.859375 -40.585938 43.507812 -37.921875 45.40625 -34.484375 C 47.300781 -31.046875 48.25 -27.003906 48.25 -22.359375 C 48.25 -17.753906 47.300781 -13.71875 45.40625 -10.25 C 43.507812 -6.789062 40.859375 -4.097656 37.453125 -2.171875 C 34.054688 -0.253906 30.097656 0.703125 25.578125 0.703125 Z M 25.578125 -9.0625 C 28.878906 -9.0625 31.46875 -10.226562 33.34375 -12.5625 C 35.21875 -14.90625 36.15625 -18.171875 36.15625 -22.359375 C 36.15625 -26.535156 35.226562 -29.785156 33.375 -32.109375 C 31.519531 -34.429688 28.921875 -35.59375 25.578125 -35.59375 C 22.242188 -35.59375 19.648438 -34.429688 17.796875 -32.109375 C 15.941406 -29.785156 15.015625 -26.535156 15.015625 -22.359375 C 15.015625 -18.171875 15.941406 -14.90625 17.796875 -12.5625 C 19.648438 -10.226562 22.242188 -9.0625 25.578125 -9.0625 Z M 25.578125 -9.0625 "/></g></g></g><g fill="#26265c" fill-opacity="1"><g transform="translate(124.505672, 352.105846)"><g><path d="M 23.5625 0.5625 C 21.957031 0.5625 20.65625 0.226562 19.65625 -0.4375 C 18.664062 -1.113281 17.832031 -2.191406 17.15625 -3.671875 L 1.84375 -37.484375 C 1.164062 -38.960938 0.953125 -40.289062 1.203125 -41.46875 C 1.453125 -42.65625 2.039062 -43.578125 2.96875 -44.234375 C 3.90625 -44.890625 5.066406 -45.21875 6.453125 -45.21875 C 8.148438 -45.21875 9.441406 -44.835938 10.328125 -44.078125 C 11.210938 -43.316406 11.972656 -42.195312 12.609375 -40.71875 L 23.75 -14.875 L 34.890625 -40.78125 C 35.523438 -42.257812 36.285156 -43.367188 37.171875 -44.109375 C 38.054688 -44.847656 39.300781 -45.21875 40.90625 -45.21875 C 42.21875 -45.21875 43.316406 -44.878906 44.203125 -44.203125 C 45.085938 -43.523438 45.644531 -42.601562 45.875 -41.4375 C 46.113281 -40.28125 45.894531 -38.960938 45.21875 -37.484375 L 29.828125 -3.671875 C 29.191406 -2.191406 28.378906 -1.113281 27.390625 -0.4375 C 26.398438 0.226562 25.125 0.5625 23.5625 0.5625 Z M 23.5625 0.5625 "/></g></g></g><g fill="#26265c" fill-opacity="1"><g transform="translate(171.486447, 352.105846)"><g><path d="M 9.875 0.5625 C 8.019531 0.5625 6.582031 0.0546875 5.5625 -0.953125 C 4.550781 -1.960938 4.046875 -3.441406 4.046875 -5.390625 L 4.046875 -39.265625 C 4.046875 -41.203125 4.550781 -42.675781 5.5625 -43.6875 C 6.582031 -44.707031 8.019531 -45.21875 9.875 -45.21875 C 11.738281 -45.21875 13.175781 -44.707031 14.1875 -43.6875 C 15.195312 -42.675781 15.703125 -41.203125 15.703125 -39.265625 L 15.703125 -5.390625 C 15.703125 -3.441406 15.207031 -1.960938 14.21875 -0.953125 C 13.226562 0.0546875 11.78125 0.5625 9.875 0.5625 Z M 9.875 0.5625 "/></g></g></g><g fill="#26265c" fill-opacity="1"><g transform="translate(191.241168, 352.105846)"><g><path d="M 10.125 0 C 6.070312 0 4.046875 -2.003906 4.046875 -6.015625 L 4.046875 -38.625 C 4.046875 -42.632812 6.070312 -44.640625 10.125 -44.640625 L 22.546875 -44.640625 C 30.273438 -44.640625 36.269531 -42.695312 40.53125 -38.8125 C 44.789062 -34.9375 46.921875 -29.453125 46.921875 -22.359375 C 46.921875 -15.265625 44.789062 -9.765625 40.53125 -5.859375 C 36.269531 -1.953125 30.273438 0 22.546875 0 Z M 15.703125 -9.4375 L 21.78125 -9.4375 C 26.21875 -9.4375 29.5 -10.5 31.625 -12.625 C 33.757812 -14.757812 34.828125 -18.003906 34.828125 -22.359375 C 34.828125 -26.703125 33.75 -29.925781 31.59375 -32.03125 C 29.445312 -34.144531 26.175781 -35.203125 21.78125 -35.203125 L 15.703125 -35.203125 Z M 15.703125 -9.4375 "/></g></g></g><g fill="#26265c" fill-opacity="1"><g transform="translate(241.007847, 352.105846)"><g><path d="M 7.859375 -12.609375 C 6.585938 -12.609375 5.53125 -13.03125 4.6875 -13.875 C 3.84375 -14.71875 3.421875 -15.769531 3.421875 -17.03125 C 3.421875 -18.300781 3.84375 -19.347656 4.6875 -20.171875 C 5.53125 -20.992188 6.585938 -21.40625 7.859375 -21.40625 L 20.390625 -21.40625 C 21.660156 -21.40625 22.71875 -20.992188 23.5625 -20.171875 C 24.40625 -19.347656 24.828125 -18.300781 24.828125 -17.03125 C 24.828125 -15.769531 24.40625 -14.71875 23.5625 -13.875 C 22.71875 -13.03125 21.660156 -12.609375 20.390625 -12.609375 Z M 7.859375 -12.609375 "/></g></g></g><g fill="#26265c" fill-opacity="1"><g transform="translate(269.183657, 352.105846)"><g><path d="M 9.9375 0 C 6.726562 0 5.125 -1.582031 5.125 -4.75 C 5.125 -7.875 6.726562 -9.4375 9.9375 -9.4375 L 15.640625 -9.4375 L 15.640625 -32.046875 L 11.78125 -29.703125 C 10.675781 -29.023438 9.640625 -28.757812 8.671875 -28.90625 C 7.703125 -29.050781 6.878906 -29.460938 6.203125 -30.140625 C 5.523438 -30.816406 5.082031 -31.640625 4.875 -32.609375 C 4.664062 -33.585938 4.75 -34.5625 5.125 -35.53125 C 5.507812 -36.5 6.269531 -37.320312 7.40625 -38 L 16.15625 -43.4375 C 18.050781 -44.625 20.054688 -45.21875 22.171875 -45.21875 C 23.773438 -45.21875 25.019531 -44.804688 25.90625 -43.984375 C 26.789062 -43.160156 27.234375 -41.96875 27.234375 -40.40625 L 27.234375 -9.4375 L 32.296875 -9.4375 C 35.503906 -9.4375 37.109375 -7.875 37.109375 -4.75 C 37.109375 -1.582031 35.503906 0 32.296875 0 Z M 9.9375 0 "/></g></g></g><g fill="#26265c" fill-opacity="1"><g transform="translate(307.173507, 352.105846)"><g><path d="M 15.078125 0.703125 C 13.335938 0.703125 11.570312 0.488281 9.78125 0.0625 C 7.988281 -0.351562 6.3125 -0.988281 4.75 -1.84375 C 3.738281 -2.34375 3.03125 -3.023438 2.625 -3.890625 C 2.226562 -4.753906 2.09375 -5.660156 2.21875 -6.609375 C 2.34375 -7.566406 2.675781 -8.425781 3.21875 -9.1875 C 3.769531 -9.945312 4.488281 -10.460938 5.375 -10.734375 C 6.269531 -11.003906 7.304688 -10.890625 8.484375 -10.390625 C 9.753906 -9.796875 10.9375 -9.390625 12.03125 -9.171875 C 13.125 -8.960938 14.179688 -8.859375 15.203125 -8.859375 C 21.535156 -8.859375 24.703125 -12.785156 24.703125 -20.640625 L 24.703125 -21.09375 C 23.816406 -19.269531 22.492188 -17.851562 20.734375 -16.84375 C 18.984375 -15.832031 16.988281 -15.328125 14.75 -15.328125 C 12.300781 -15.328125 10.09375 -15.945312 8.125 -17.1875 C 6.164062 -18.4375 4.613281 -20.15625 3.46875 -22.34375 C 2.332031 -24.539062 1.765625 -27.035156 1.765625 -29.828125 C 1.765625 -32.867188 2.421875 -35.550781 3.734375 -37.875 C 5.046875 -40.195312 6.863281 -42.019531 9.1875 -43.34375 C 11.507812 -44.675781 14.1875 -45.34375 17.21875 -45.34375 C 23.09375 -45.34375 27.625 -43.378906 30.8125 -39.453125 C 34 -35.523438 35.59375 -29.953125 35.59375 -22.734375 C 35.59375 -17.835938 34.78125 -13.632812 33.15625 -10.125 C 31.53125 -6.625 29.175781 -3.941406 26.09375 -2.078125 C 23.007812 -0.222656 19.335938 0.703125 15.078125 0.703125 Z M 17.859375 -24.1875 C 19.503906 -24.1875 20.820312 -24.742188 21.8125 -25.859375 C 22.8125 -26.984375 23.3125 -28.472656 23.3125 -30.328125 C 23.3125 -32.191406 22.8125 -33.679688 21.8125 -34.796875 C 20.820312 -35.921875 19.503906 -36.484375 17.859375 -36.484375 C 16.210938 -36.484375 14.890625 -35.921875 13.890625 -34.796875 C 12.898438 -33.679688 12.40625 -32.191406 12.40625 -30.328125 C 12.40625 -28.472656 12.898438 -26.984375 13.890625 -25.859375 C 14.890625 -24.742188 16.210938 -24.1875 17.859375 -24.1875 Z M 17.859375 -24.1875 "/></g></g></g></svg>